<?xml version="1.0" encoding="utf-8"?><!-- Uploaded to: SVG Repo, www.svgrepo.com, Generator: SVG Repo Mixer Tools -->
<svg width="80px" height="80px" viewBox="0 0 24 24" fill="none" xmlns="http://www.w3.org/2000/svg">
<path d="M5 8V17.0192M9 8V17M15 8V17M19 8V17.0192M5 17.0192C5.31428 17 5.70173 17 6.2 17H17.8C18.2983 17 18.6857 17 19 17.0192M5 17.0192C4.60779 17.0431 4.32953 17.097 4.09202 17.218C3.71569 17.4097 3.40973 17.7157 3.21799 18.092C3 18.5198 3 19.0799 3 20.2V21H21V20.2C21 19.0799 21 18.5198 20.782 18.092C20.5903 17.7157 20.2843 17.4097 19.908 17.218C19.6705 17.097 19.3922 17.0431 19 17.0192M3 5.5V8H21V5.5L12 3L3 5.5Z" stroke="#000000" stroke-width="2" stroke-linecap="round" stroke-linejoin="round"/>
</svg>
